<mxfile host="65bd71144e">
    <diagram id="ZWHpbIGB1hO_pDec2nDw" name="Page-1">
        <mxGraphModel dx="2002" dy="1950" grid="1" gridSize="10" guides="1" tooltips="1" connect="1" arrows="1" fold="1" page="1" pageScale="1" pageWidth="850" pageHeight="1100" math="0" shadow="0">
            <root>
                <mxCell id="0"/>
                <mxCell id="1" parent="0"/>
                <mxCell id="33" value="" style="whiteSpace=wrap;html=1;aspect=fixed;" parent="1" vertex="1">
                    <mxGeometry x="70" y="-60" width="760" height="760" as="geometry"/>
                </mxCell>
                <mxCell id="34" value="" style="swimlane;startSize=0;" parent="1" vertex="1">
                    <mxGeometry x="390" y="110" width="430" height="290" as="geometry">
                        <mxRectangle x="370" y="110" width="50" height="40" as="alternateBounds"/>
                    </mxGeometry>
                </mxCell>
                <mxCell id="35" value="" style="swimlane;startSize=0;" parent="34" vertex="1">
                    <mxGeometry x="180" y="70" width="210" height="180" as="geometry"/>
                </mxCell>
                <mxCell id="36" value="Flutter&amp;nbsp;&lt;br&gt;Aplication" style="shape=cylinder3;whiteSpace=wrap;html=1;boundedLbl=1;backgroundOutline=1;size=15;" parent="35" vertex="1">
                    <mxGeometry x="150" y="72.5" width="55" height="95" as="geometry"/>
                </mxCell>
                <mxCell id="37" value="./" style="text;html=1;align=center;verticalAlign=middle;resizable=0;points=[];autosize=1;strokeColor=none;fillColor=none;" parent="35" vertex="1">
                    <mxGeometry x="20" y="140" width="20" height="20" as="geometry"/>
                </mxCell>
                <mxCell id="38" value="" style="curved=1;endArrow=classic;html=1;exitX=1.159;exitY=0.851;exitDx=0;exitDy=0;exitPerimeter=0;entryX=0;entryY=0.5;entryDx=0;entryDy=0;entryPerimeter=0;" parent="35" source="37" target="36" edge="1">
                    <mxGeometry width="50" height="50" relative="1" as="geometry">
                        <mxPoint x="25" y="180" as="sourcePoint"/>
                        <mxPoint x="55" y="130" as="targetPoint"/>
                        <Array as="points">
                            <mxPoint x="75" y="180"/>
                            <mxPoint x="60" y="128"/>
                        </Array>
                    </mxGeometry>
                </mxCell>
                <mxCell id="39" value="Backend&lt;br&gt;Go Aplicatin" style="text;html=1;align=center;verticalAlign=middle;resizable=0;points=[];autosize=1;strokeColor=none;fillColor=none;" parent="35" vertex="1">
                    <mxGeometry x="75" y="10" width="80" height="30" as="geometry"/>
                </mxCell>
                <mxCell id="41" value="./scan" style="text;html=1;align=center;verticalAlign=middle;resizable=0;points=[];autosize=1;strokeColor=none;fillColor=none;" parent="35" vertex="1">
                    <mxGeometry x="65" y="50" width="50" height="20" as="geometry"/>
                </mxCell>
                <mxCell id="42" value="./getValues" style="text;html=1;align=center;verticalAlign=middle;resizable=0;points=[];autosize=1;strokeColor=none;fillColor=none;" parent="35" vertex="1">
                    <mxGeometry x="55" y="90" width="70" height="20" as="geometry"/>
                </mxCell>
                <mxCell id="44" value="" style="edgeStyle=none;html=1;" parent="34" source="45" target="50" edge="1">
                    <mxGeometry relative="1" as="geometry"/>
                </mxCell>
                <mxCell id="45" value="&amp;nbsp; &amp;nbsp; &amp;nbsp; nginx reverse proxy" style="whiteSpace=wrap;html=1;" parent="34" vertex="1">
                    <mxGeometry y="100" width="100" height="60" as="geometry"/>
                </mxCell>
                <mxCell id="47" value="" style="edgeStyle=none;html=1;entryX=0.035;entryY=0.059;entryDx=0;entryDy=0;entryPerimeter=0;" parent="34" source="50" target="41" edge="1">
                    <mxGeometry relative="1" as="geometry"/>
                </mxCell>
                <mxCell id="48" value="" style="edgeStyle=none;html=1;entryX=-0.001;entryY=0.601;entryDx=0;entryDy=0;entryPerimeter=0;" parent="34" source="50" target="42" edge="1">
                    <mxGeometry relative="1" as="geometry"/>
                </mxCell>
                <mxCell id="49" value="" style="edgeStyle=none;html=1;entryX=0.242;entryY=-0.066;entryDx=0;entryDy=0;entryPerimeter=0;" parent="34" source="50" target="37" edge="1">
                    <mxGeometry relative="1" as="geometry"/>
                </mxCell>
                <mxCell id="50" value="8082" style="fontStyle=0;labelPosition=right;verticalLabelPosition=middle;align=left;verticalAlign=middle;spacingLeft=2;" parent="34" vertex="1">
                    <mxGeometry x="150" y="120" width="30" height="30" as="geometry"/>
                </mxCell>
                <mxCell id="51" value="Web-Browser in Clint Rechner" style="text;html=1;align=center;verticalAlign=middle;resizable=0;points=[];autosize=1;strokeColor=none;fillColor=none;" parent="1" vertex="1">
                    <mxGeometry x="70" y="120" width="180" height="20" as="geometry"/>
                </mxCell>
                <mxCell id="53" value="" style="shape=mxgraph.cisco.computers_and_peripherals.workstation;sketch=0;html=1;pointerEvents=1;dashed=0;fillColor=#036897;strokeColor=#ffffff;strokeWidth=2;verticalLabelPosition=bottom;verticalAlign=top;align=center;outlineConnect=0;" parent="1" vertex="1">
                    <mxGeometry x="209" y="219" width="83" height="62" as="geometry"/>
                </mxCell>
                <mxCell id="54" value="" style="curved=1;endArrow=classic;html=1;entryX=0;entryY=0.25;entryDx=0;entryDy=0;" parent="1" source="53" target="56" edge="1">
                    <mxGeometry width="50" height="50" relative="1" as="geometry">
                        <mxPoint x="320" y="270" as="sourcePoint"/>
                        <mxPoint x="370" y="220" as="targetPoint"/>
                        <Array as="points">
                            <mxPoint x="370" y="270"/>
                            <mxPoint x="320" y="220"/>
                        </Array>
                    </mxGeometry>
                </mxCell>
                <mxCell id="55" value="http anfrage" style="edgeLabel;html=1;align=center;verticalAlign=middle;resizable=0;points=[];" parent="54" vertex="1" connectable="0">
                    <mxGeometry x="-0.5048" y="2" relative="1" as="geometry">
                        <mxPoint as="offset"/>
                    </mxGeometry>
                </mxCell>
                <mxCell id="56" value="80" style="fontStyle=0;labelPosition=right;verticalLabelPosition=middle;align=left;verticalAlign=middle;spacingLeft=2;" parent="1" vertex="1">
                    <mxGeometry x="370" y="230" width="20" height="30" as="geometry"/>
                </mxCell>
            </root>
        </mxGraphModel>
    </diagram>
</mxfile>
